<?xml version="1.0" encoding="iso-8859-1"?>
<!-- Generator: Adobe Illustrator 17.0.2, SVG Export Plug-In . SVG Version: 6.00 Build 0)  -->
<!DOCTYPE svg PUBLIC "-//W3C//DTD SVG 1.1//EN" "http://www.w3.org/Graphics/SVG/1.1/DTD/svg11.dtd">
<svg version="1.1" id="Capa_1" xmlns="http://www.w3.org/2000/svg" xmlns:xlink="http://www.w3.org/1999/xlink" x="0px" y="0px"
	 width="100px" height="100px" viewBox="0 0 100 100" style="enable-background:new 0 0 100 100;" xml:space="preserve">
<g>
	<path style="fill:#1E1E1C;" d="M83.932,28.855c-0.181-5.491-0.282-12.909-0.228-18.404c0.002-0.245-0.037-0.461-0.093-0.664
		c0.107-1.197-0.596-2.461-2.129-2.421c-19.354,0.508-38.704-0.25-58.058-0.28c-1.61-0.003-2.315,1.412-2.117,2.654
		c-0.064,0.216-0.109,0.448-0.106,0.712c0.292,23.095,1.086,56.279,1.111,79.377c0,0.518,0.147,0.939,0.382,1.272
		c0.142,0.979,0.846,1.845,2.119,1.813c8.365-0.208,16.734-0.342,25.093-0.752c7.45-0.365,16.734,0.124,23.855-2.307
		c2.521-0.861,4.777-2.134,6.71-3.977c3.535-3.369,4.741-7.892,5.046-12.658c0.292-4.577-0.247-9.379-0.354-13.597
		C84.887,48.728,84.29,39.748,83.932,28.855z M71.686,70.049c-1.362,0.008-2.678,1.071-2.07,2.705
		c1.225,3.286,1.784,7.366-0.098,10.509c-2.276,3.801-6.338,3.698-10.2,4.185c-2.361,0.298-4.872,0.14-7.253,0.207
		c-1.853,0.052-25.314,0.624-25.314,0.716c-0.055-22.233-0.79-54.553-1.087-76.784c17.869,0.077,35.733,0.691,53.602,0.309
		c-0.068,18.253,1.55,44.639,1.646,59.065c-2.772-0.875-5.637-1.244-8.595-1.046C72.084,69.929,71.878,69.982,71.686,70.049z
		 M73.431,85.245c1.795-3.058,2.243-6.81,1.31-10.877c2.161,0.084,4.292,0.501,6.309,1.356c0.009,0.025,0.015,0.052,0.024,0.077
		C80.419,80.62,77.371,83.577,73.431,85.245z"/>
	<path style="fill:#1E1E1C;" d="M33.5,33.375c-0.829,0.085-1.413,0.529-1.763,1.102c-0.436,0.363-0.732,0.91-0.737,1.648
		c-0.042,6.025,0.908,11.933,1.956,17.848c0.505,2.854,4.841,1.641,4.339-1.196c-0.365-2.062-0.713-4.12-1.003-6.183
		c3.55-0.155,6.887-1.953,6.879-6.146C43.16,35.44,37.873,32.927,33.5,33.375z M38.622,40.972c-0.071,0.297-0.12,0.389-0.488,0.741
		c-0.414,0.396-1.425,0.512-2.36,0.467c-0.131-1.434-0.218-2.873-0.253-4.32c0.635,0.08,1.251,0.262,1.845,0.607
		c0.768,0.447,1.083,1.023,1.27,1.769c-0.021-0.016,0.034,0.409,0.034,0.44c0,0.054,0.002,0.081,0.003,0.115
		C38.661,40.824,38.645,40.875,38.622,40.972z"/>
	<path style="fill:#1E1E1C;" d="M60.875,33.125c0.176-2.9-4.325-2.883-4.5,0c-0.158,2.6-0.078,5.181,0.11,7.756
		C54.491,41.09,52.496,41.3,50.5,41.5c-0.029,0.003-0.056,0.011-0.085,0.015c-0.4-2.678-0.876-5.343-1.496-7.988
		c-0.661-2.825-5-1.627-4.339,1.196c1.275,5.447,1.939,10.973,2.544,16.527c0.311,2.853,4.814,2.883,4.5,0
		c-0.193-1.77-0.392-3.538-0.609-5.303c1.961-0.198,3.922-0.403,5.883-0.609c0.233,2.135,0.496,4.27,0.727,6.412
		c0.307,2.854,4.81,2.884,4.5,0C61.458,45.541,60.495,39.387,60.875,33.125z"/>
	<path style="fill:#1E1E1C;" d="M75.355,37.871c-0.698-4.356-5.094-6.845-9.23-6.621c-1.078,0.058-1.754,0.723-2.029,1.524
		c-0.134,0.278-0.216,0.602-0.221,0.976c-0.078,5.652,0.387,11.261,1,16.875c0.312,2.852,4.815,2.883,4.5,0
		c-0.19-1.743-0.356-3.485-0.506-5.229C72.746,44.875,76.06,42.268,75.355,37.871z M68.554,40.919
		c-0.09-1.632-0.142-3.267-0.159-4.905c1.168,0.375,2.134,1.157,2.514,2.491C71.339,40.016,70.008,40.702,68.554,40.919z"/>
</g>
</svg>
